<svg width="540" height="540" viewBox="0 0 540 540" fill="none" xmlns="http://www.w3.org/2000/svg">
<path fill-rule="evenodd" clip-rule="evenodd" d="M188.236 490.427C246.772 474.514 314.234 435.259 374.747 374.747C435.259 314.235 474.514 246.772 490.427 188.236C506.687 128.426 496.939 86.8166 474.802 64.6804C452.666 42.5442 411.057 32.7959 351.247 49.0555C292.711 64.9688 225.248 104.224 164.736 164.736C104.224 225.248 64.9688 292.711 49.0555 351.247C32.7959 411.057 42.5442 452.666 64.6804 474.802C86.8166 496.939 128.426 506.687 188.236 490.427ZM35.689 503.794C109.693 577.798 274.475 533.002 403.738 403.738C533.002 274.475 577.798 109.693 503.794 35.689C429.789 -38.3153 265.008 6.48109 135.745 135.745C6.48109 265.008 -38.3153 429.789 35.689 503.794Z" fill="black"/>
<path fill-rule="evenodd" clip-rule="evenodd" d="M490.427 351.247C474.514 292.711 435.259 225.248 374.747 164.736C314.235 104.224 246.772 64.9688 188.236 49.0555C128.426 32.7959 86.8166 42.5442 64.6804 64.6804C42.5442 86.8166 32.7959 128.426 49.0555 188.236C64.9688 246.772 104.224 314.235 164.736 374.747C225.248 435.259 292.711 474.514 351.247 490.427C411.057 506.687 452.666 496.939 474.802 474.802C496.939 452.666 506.687 411.057 490.427 351.247ZM503.794 503.794C577.798 429.789 533.002 265.008 403.738 135.745C274.475 6.48109 109.693 -38.3153 35.689 35.689C-38.3153 109.693 6.48109 274.475 135.745 403.738C265.008 533.002 429.789 577.798 503.794 503.794Z" fill="black"/>
<path d="M260.843 206.97C264.694 200.312 274.306 200.312 278.157 206.97L327.323 291.994C331.178 298.661 326.367 307 318.666 307H220.334C212.633 307 207.822 298.661 211.677 291.994L260.843 206.97Z" fill="black"/>
</svg>
