<svg width="362" height="363" viewBox="0 0 362 363" fill="none" xmlns="http://www.w3.org/2000/svg">
<path fill-rule="evenodd" clip-rule="evenodd" d="M307.285 237.657C298.688 203.089 275.756 161.764 238.348 124.356C200.941 86.9486 159.615 64.0165 125.047 55.4198C89.3593 46.5444 70.0843 54.3586 61.8473 62.5957C53.6102 70.8327 45.7959 90.1077 54.6714 125.796C63.2681 160.363 86.2002 201.689 123.608 239.097C161.015 276.504 202.341 299.436 236.909 308.033C272.597 316.908 291.872 309.094 300.109 300.857C308.346 292.62 316.16 273.345 307.285 237.657ZM336.027 336.776C387.55 285.254 359.899 174.069 274.267 88.4373C188.636 2.8058 77.4506 -24.8453 25.9285 26.6769C-25.5937 78.199 2.05739 189.384 87.6889 275.015C173.32 360.647 284.505 388.298 336.027 336.776Z" fill="black"/>
<path fill-rule="evenodd" clip-rule="evenodd" d="M125.091 308.074C159.659 299.477 200.985 276.545 238.392 239.138C275.8 201.73 298.732 160.404 307.329 125.837C316.204 90.1486 308.39 70.8736 300.153 62.6366C291.916 54.3995 272.641 46.5852 236.953 55.4607C202.385 64.0574 161.059 86.9895 123.652 124.397C86.2442 161.804 63.3121 203.13 54.7153 237.698C45.8399 273.386 53.6542 292.661 61.8912 300.898C70.1283 309.135 89.4032 316.949 125.091 308.074ZM25.9724 336.817C77.4946 388.339 188.68 360.688 274.311 275.056C359.942 189.425 387.594 78.2399 336.071 26.7178C284.549 -24.8044 173.364 2.84669 87.7328 88.4782C2.10133 174.11 -25.5497 285.295 25.9724 336.817Z" fill="black"/>
<path d="M180.98 230.026L138.085 155.806L223.875 155.806L180.98 230.026Z" fill="black"/>
</svg>
